<?xml version="1.0" encoding="UTF-8"?>
<svg id="_レイヤー_1" data-name="レイヤー 1" xmlns="http://www.w3.org/2000/svg" viewBox="0 0 40 40">
  <defs>
    <style>
      .cls-1 {
        fill: #fff;
      }
    </style>
  </defs>
  <path class="cls-1" d="M20,14c-3.31,0-6,2.69-6,6s2.69,6,6,6,6-2.69,6-6c0-3.31-2.69-6-6-6ZM20,24c-2.21,0-4-1.79-4-4s1.79-4,4-4,4,1.79,4,4-1.79,4-4,4ZM26,7h-12c-3.86,0-7,3.14-7,7v12c0,3.86,3.14,7,7,7h12c3.86,0,7-3.14,7-7v-12c0-3.86-3.14-7-7-7ZM31,26c0,2.76-2.24,5-5,5h-12c-2.76,0-5-2.24-5-5v-12c0-2.76,2.24-5,5-5h12c2.76,0,5,2.24,5,5v12ZM28,13.5c0,.83-.67,1.5-1.5,1.5s-1.5-.67-1.5-1.5.67-1.5,1.5-1.5,1.5.67,1.5,1.5Z"/>
</svg>