<?xml version="1.0" encoding="UTF-8"?>
<svg id="_レイヤー_1" data-name="レイヤー 1" xmlns="http://www.w3.org/2000/svg" viewBox="0 0 40 40">
  <defs>
    <style>
      .cls-1 {
        fill: #b4937c;
      }
    </style>
  </defs>
  <path class="cls-1" d="M32,13c-3.31,0-6-2.69-6-6,0-.55-.45-1-1-1h-5c-.55,0-1,.45-1,1v16.5c0,1.38-1.12,2.5-2.5,2.5s-2.5-1.12-2.5-2.5c0-.97.56-1.84,1.43-2.26.35-.17.57-.52.57-.9v-5.34c0-.55-.45-1-1-1-.06,0-.12,0-.18.02-4.46.8-7.82,4.87-7.82,9.48,0,5.25,4.25,9.5,9.5,9.5s9.5-4.25,9.5-9.5v-4.96c1.85.97,3.91,1.47,6,1.46.55,0,1-.45,1-1v-5c0-.55-.45-1-1-1ZM31,17.95c-1.95-.17-3.83-.87-5.42-2.02-.45-.32-1.07-.22-1.4.23-.12.17-.19.38-.19.59v6.75c0,4.14-3.36,7.5-7.5,7.5s-7.5-3.36-7.5-7.5c0-3.24,2.08-6.14,5-7.2v3.46c-2.07,1.38-2.62,4.18-1.24,6.24,1.38,2.07,4.18,2.62,6.24,1.24,1.25-.84,2-2.24,2-3.74v-15.5h3.06c.46,3.62,3.31,6.47,6.94,6.94v3.02Z"/>
</svg>