<?xml version="1.0" encoding="UTF-8"?>
<svg id="_レイヤー_1" data-name="レイヤー 1" xmlns="http://www.w3.org/2000/svg" viewBox="0 0 40 40">
  <defs>
    <style>
      .cls-1 {
        fill: #b4937c;
      }
    </style>
  </defs>
  <path class="cls-1" d="M30.84,30.46l-7.83-12.3,7.72-8.49c.37-.41.33-1.05-.08-1.41-.41-.36-1.03-.33-1.4.07l-7.35,8.09-5.06-7.95c-.18-.29-.5-.46-.84-.46h-6c-.55,0-1,.45-1,1,0,.19.05.38.16.54l7.82,12.3-7.72,8.5c-.38.4-.35,1.04.05,1.41.4.38,1.04.35,1.41-.05,0,0,.01-.01.02-.02l7.35-8.09,5.06,7.95c.18.29.5.46.84.46h6c.55,0,1-.45,1-1,0-.19-.05-.38-.16-.54ZM24.55,30L11.82,10h3.62l12.73,20h-3.63Z"/>
</svg>