<?xml version="1.0" encoding="UTF-8"?>
<svg id="_レイヤー_1" data-name="レイヤー 1" xmlns="http://www.w3.org/2000/svg" viewBox="0 0 40 40">
  <defs>
    <style>
      .cls-1 {
        fill: #b4937c;
      }
    </style>
  </defs>
  <path class="cls-1" d="M24.56,19.17l-6-4c-.46-.31-1.08-.18-1.39.28-.11.16-.17.36-.17.56v8c0,.55.45,1,1,1,.2,0,.39-.06.56-.17l6-4c.46-.31.58-.93.28-1.39-.07-.11-.17-.21-.28-.28ZM19,22.13v-4.26l3.2,2.12-3.2,2.13ZM33.29,12.69c-.24-.93-.91-1.7-1.81-2.05-4.28-1.65-11.1-1.64-11.48-1.64s-7.19-.01-11.48,1.64c-.9.35-1.57,1.12-1.81,2.05-.32,1.25-.71,3.53-.71,7.31s.38,6.06.71,7.31c.24.94.91,1.7,1.81,2.05,4.11,1.58,10.53,1.64,11.4,1.64h.17c.87,0,7.3-.06,11.4-1.64.9-.35,1.57-1.12,1.81-2.05.32-1.25.71-3.53.71-7.31s-.39-6.06-.71-7.31ZM31.35,26.81c-.08.31-.3.57-.6.69-3.96,1.53-10.68,1.5-10.75,1.5h0c-.07,0-6.79.02-10.75-1.5-.3-.12-.52-.38-.6-.69-.3-1.14-.65-3.24-.65-6.81s.35-5.67.64-6.81c.08-.31.3-.57.6-.69,3.81-1.47,10.21-1.5,10.73-1.5h.03c.07,0,6.8-.02,10.75,1.5.3.12.52.38.6.69.3,1.14.65,3.24.65,6.81s-.35,5.67-.65,6.81h0Z"/>
</svg>