<?xml version="1.0" encoding="UTF-8"?>
<svg id="_レイヤー_1" data-name="レイヤー 1" xmlns="http://www.w3.org/2000/svg" viewBox="0 0 26 26">
  <defs>
    <style>
      .cls-1 {
        fill: #fff;
      }
    </style>
  </defs>
  <path class="cls-1" d="M13,0C5.82,0,0,5.82,0,13s5.82,13,13,13,13-5.82,13-13C25.99,5.82,20.18,0,13,0ZM13,24c-6.08,0-11-4.92-11-11S6.92,2,13,2s11,4.92,11,11c0,6.07-4.93,10.99-11,11ZM18.71,12.29c.39.39.39,1.02,0,1.41h0s-4,4-4,4c-.39.39-1.02.39-1.42,0s-.39-1.02,0-1.42l2.29-2.29h-7.59c-.55,0-1-.45-1-1s.45-1,1-1h7.59l-2.29-2.29c-.39-.39-.39-1.02,0-1.41.39-.39,1.02-.39,1.42,0l4,4Z"/>
</svg>