<?xml version="1.0" encoding="UTF-8"?>
<svg id="_レイヤー_1" data-name="レイヤー 1" xmlns="http://www.w3.org/2000/svg" viewBox="0 0 32 32">
  <defs>
    <style>
      .cls-1 {
        fill: #fff;
      }
    </style>
  </defs>
  <path class="cls-1" d="M25.71,24.29c.39.39.39,1.02,0,1.42s-1.02.39-1.42,0h0l-8.29-8.29-8.29,8.29c-.39.39-1.02.39-1.42,0s-.39-1.02,0-1.42l8.29-8.29L6.29,7.71c-.39-.39-.39-1.02,0-1.41s1.02-.39,1.41,0h0l8.29,8.29,8.29-8.29c.39-.39,1.02-.39,1.42,0s.39,1.02,0,1.42h0l-8.29,8.29,8.29,8.29Z"/>
</svg>